<svg width="16" height="16" viewBox="0 0 16 16" fill="none" xmlns="http://www.w3.org/2000/svg">
<path d="M12.8 3.19995H3.20001C2.31626 3.19995 1.60001 3.9162 1.60001 4.79995V11.2C1.60001 12.0837 2.31626 12.8 3.20001 12.8H12.8C13.6838 12.8 14.4 12.0837 14.4 11.2V4.79995C14.4 3.9162 13.6825 3.19995 12.8 3.19995ZM3.20001 3.99995H12.8C13.241 3.99995 13.6 4.35895 13.6 4.79995V5.7002L8.72001 9.3602C8.29501 9.6782 7.70426 9.6782 7.27926 9.3602L2.40001 5.69995V4.79995C2.40001 4.35995 2.75901 3.99995 3.20001 3.99995ZM13.6 11.2C13.6 11.641 13.241 12 12.8 12H3.20001C2.75901 12 2.40001 11.641 2.40001 11.2V6.67745L6.80001 9.99995C7.15301 10.2652 7.57651 10.4005 8.00001 10.4005C8.42351 10.4005 8.84751 10.265 9.20001 9.99995L13.6 6.67745V11.2Z" fill="#566574"/>
</svg>
